<?xml version="1.0" encoding="UTF-8" standalone="no"?>
<svg
   xmlns:dc="http://purl.org/dc/elements/1.1/"
   xmlns:cc="http://creativecommons.org/ns#"
   xmlns:rdf="http://www.w3.org/1999/02/22-rdf-syntax-ns#"
   xmlns:svg="http://www.w3.org/2000/svg"
   xmlns="http://www.w3.org/2000/svg"
   xmlns:sodipodi="http://sodipodi.sourceforge.net/DTD/sodipodi-0.dtd"
   xmlns:inkscape="http://www.inkscape.org/namespaces/inkscape"
   version="1.1"
   id="Layer_1"
   x="0px"
   y="0px"
   width="70.910004"
   height="70.910004"
   viewBox="0 0 70.910004 70.910001"
   enable-background="new 0 0 100 70.912"
   xml:space="preserve"
   inkscape:version="0.48.4 r9939"
   sodipodi:docname="icon_4410.svg"><metadata
   id="metadata3013"><rdf:RDF><cc:Work
       rdf:about=""><dc:format>image/svg+xml</dc:format><dc:type
         rdf:resource="http://purl.org/dc/dcmitype/StillImage" /></cc:Work></rdf:RDF></metadata><defs
   id="defs3011" /><sodipodi:namedview
   pagecolor="#ffffff"
   bordercolor="#666666"
   borderopacity="1"
   objecttolerance="10"
   gridtolerance="10"
   guidetolerance="10"
   inkscape:pageopacity="0"
   inkscape:pageshadow="2"
   inkscape:window-width="1920"
   inkscape:window-height="1028"
   id="namedview3009"
   showgrid="false"
   inkscape:zoom="6.0850066"
   inkscape:cx="25.074418"
   inkscape:cy="24.655621"
   inkscape:window-x="-8"
   inkscape:window-y="-8"
   inkscape:window-maximized="1"
   inkscape:current-layer="Layer_1" />



<g
   id="g3788"
   transform="translate(-0.044998,-6.1630229)"><path
     inkscape:connector-curvature="0"
     style="fill:#333333;fill-opacity:1"
     id="path3001"
     d="m 71,40.725053 v 30.18423 H 56.54582 c 0.04615,-0.5822 0.08804,-1.17434 0.08804,-1.775 0,-11.79665 -9.55944,-21.35538 -21.35112,-21.35538 -11.79168,0 -21.35041,9.55873 -21.35041,21.35609 0,0.60066 0.04189,1.1928 0.08804,1.775 H 0 v -30.18494 h 71 z" /><g
     transform="translate(-14.544998,12.32806)"
     id="g3783"><path
       d="m 29.694,16.299993 c -3.353,0 -6.055,2.708 -6.055,6.055 0,3.32 2.702,6.042 6.055,6.042 3.333,0 6.048,-2.722 6.048,-6.042 0,-3.347 -2.715,-6.055 -6.048,-6.055 z m 0,9.31 c -1.797,0 -3.262,-1.471 -3.262,-3.255 0,-1.823 1.465,-3.255 3.262,-3.255 1.784,0 3.255,1.432 3.255,3.255 0,1.784 -1.471,3.255 -3.255,3.255 z"
       id="path3003"
       style="fill:#333333;fill-opacity:1"
       inkscape:connector-curvature="0" /><path
       d="m 70.41,16.299993 c -3.32,0 -6.048,2.708 -6.048,6.055 0,3.32 2.728,6.042 6.048,6.042 3.347,0 6.055,-2.722 6.055,-6.042 0,-3.347 -2.708,-6.055 -6.055,-6.055 z m 0,9.31 c -1.784,0 -3.255,-1.471 -3.255,-3.255 0,-1.823 1.471,-3.255 3.255,-3.255 1.81,0 3.262,1.432 3.262,3.255 0,1.784 -1.452,3.255 -3.262,3.255 z"
       id="path3005"
       style="fill:#333333;fill-opacity:1"
       inkscape:connector-curvature="0" /><path
       d="m 82.168,17.822993 c 0,-5.885 -3.679,-6.602 -3.679,-6.602 -5.377,-0.742 -14.654,-1.12 -14.654,-1.12 -0.847,-1.4829993 -4.779,-10.10299922 -7.064,-10.10299922 -0.768,0 -17.194,0 -20.091,0 -2.923,0 -7.676,8.39799992 -8.73,10.31199922 0,0 -3.666,0.612 -5.391,1.016 -0.944,0.221 -3.594,0.273 -3.594,7.669 h -2.298 v 3.359 h 5.566 c 0,-4.114 3.347,-7.461 7.461,-7.461 4.115,0 7.448,3.347 7.448,7.461 h 25.839 c 0,-4.114 3.327,-7.461 7.429,-7.461 4.121,0 7.461,3.347 7.461,7.461 h 5.462 v -4.531 H 82.168 z M 46.504,9.5289937 H 34.896 c 1.575,-4.896 4.473,-8.398 5.696,-8.398 1.556,0 5.912,0 5.912,0 v 8.398 z m 2.162,0 v -8.398 c 0,0 5.99,0 7.519,0 1.537,0 4.948,7.096 5.898,8.9189993 L 48.666,9.5289937 z"
       id="path3007"
       style="fill:#333333;fill-opacity:1;stroke:none"
       inkscape:connector-curvature="0" /></g></g>
</svg>